<svg version="1.2" xmlns="http://www.w3.org/2000/svg" viewBox="0 0 128 128" width="128" height="128"><style>.a{fill:#fff}</style><path fill-rule="evenodd" class="a" d="m59.2 13.8c-6.7 3.8-9 12.4-5.1 19.1 2.2 3.9 5.2 5.1 9.3 6.7 3.4 1.4 6.3 3.9 8.2 7.1 1.9 3.3 2.6 7 2.1 10.7-0.7 4.3-1.1 7.5 1.1 11.4 3.9 6.7 12.4 9 19.1 5.1 6.7-3.8 9-12.4 5.1-19-2.2-4-5.2-5.2-9.3-6.8-3.4-1.4-6.3-3.8-8.2-7.1-1.9-3.2-2.6-7-2.1-10.7 0.7-4.3 1.1-7.5-1.1-11.4-3.9-6.7-12.4-9-19.1-5.1zm39.7-0.1c-6.2 3.5-8.3 11.5-4.8 17.7 3.6 6.2 11.6 8.3 17.8 4.7 6.2-3.5 8.3-11.5 4.7-17.7-3.6-6.2-11.5-8.3-17.7-4.7zm-58.9 28.1c-5.3-9.1 1.3-14.3-3.5-22.8-9.4-16.2-34-2-24.6 14.2 4.9 8.5 12.7 5.3 18 14.5 3.5 6.1 1.8 9.3 1.6 15.3-0.4 14.1 14.6 12.7 19.9 21.9 5 8.7-1.3 16.1 3.5 22.9 12.4 17.5 33.4-0.6 24.6-14.2-6-9.4-12.6-5.1-18.1-14.6-4.7-8.1 0.9-15.2-3.4-22.7-4.9-8.4-12.7-5.3-18-14.5z"/></svg>